<?xml version="1.0" encoding="utf-8"?>
<!-- Generator: Adobe Illustrator 21.0.2, SVG Export Plug-In . SVG Version: 6.00 Build 0)  -->
<svg version="1.1" id="Done_" xmlns="http://www.w3.org/2000/svg" xmlns:xlink="http://www.w3.org/1999/xlink" x="0px" y="0px"
	 viewBox="0 0 39 39" style="enable-background:new 0 0 39 39;" xml:space="preserve">
<style type="text/css">
	.st0{fill:none;stroke:#000641;stroke-width:2;stroke-linecap:round;stroke-miterlimit:10;}
	.st1{fill:none;stroke:#FF572A;stroke-width:2;stroke-linecap:round;stroke-miterlimit:10;}
</style>
<path id="Path_4134_3_" class="st0" d="M38,14.2c0,0.1,0,0.2,0,0.3c0,5.8,0,11.6,0,17.4c0,3.4-2.8,6.1-6.1,6.1l-12.4,0
	c-4.1,0-8.3,0-12.4,0c-3,0-5.6-2.3-6-5.3C1,32.4,1,32.1,1,31.8c0-8.2,0-16.4,0-24.7C1,3.7,3.7,1,7.1,1c5.3,0,10.6,0,15.8,0"/>
<path id="Path_4135_3_" class="st1" d="M36.9,3.4c-0.8,1.1-1.7,2.2-2.5,3.3L20.4,25.3c-0.1,0.1-0.1,0.1-0.2,0.2
	C20,26,19.5,26.1,19,25.9c-0.1-0.1-0.2-0.2-0.3-0.3c-1.3-1.5-2.5-3-3.8-4.5c-1.7-2.1-3.5-4.2-5.2-6.3"/>
</svg>
