<?xml version="1.0" encoding="utf-8"?>
<!-- Generator: Adobe Illustrator 21.0.2, SVG Export Plug-In . SVG Version: 6.00 Build 0)  -->
<svg version="1.1" id="Reports" xmlns="http://www.w3.org/2000/svg" xmlns:xlink="http://www.w3.org/1999/xlink" x="0px" y="0px"
	 viewBox="0 0 35.2 39" style="enable-background:new 0 0 35.2 39;" xml:space="preserve">
<style type="text/css">
	.st0{fill:none;stroke:#000641;stroke-width:2;stroke-miterlimit:10;}
	.st1{fill:none;stroke:#FF572A;stroke-width:2;stroke-linecap:round;stroke-miterlimit:10;}
</style>
<path id="Path_4130" class="st0" d="M33.5,26c0,3,0,6.1,0,9.1c0,1.4-1.1,2.5-2.4,2.6c0,0-0.1,0-0.1,0c-1.1,0-2.1,0-3.2,0
	c-1.4,0-2.5-1.1-2.6-2.5c0,0,0-0.1,0-0.1c0-6.1,0-12.2,0-18.3c0-1.4,1.1-2.5,2.4-2.5c0,0,0,0,0.1,0c1.1,0,2.3,0,3.4,0
	c1.4,0,2.5,1.1,2.5,2.5c0,0,0,0,0,0C33.5,19.9,33.5,22.9,33.5,26z"/>
<path id="Path_4132" class="st0" d="M21.8,28.5c0,2.2,0,4.3,0,6.5c0.1,1.4-0.9,2.6-2.3,2.7c-0.1,0-0.3,0-0.4,0c-1,0-2,0-3,0
	c-1.4,0.1-2.6-1-2.6-2.4c0-0.1,0-0.2,0-0.3c0-2.9,0-5.8,0-8.7c0-1.5,0-3,0-4.5c0-1.2,0.8-2.3,2-2.5c0.1,0,0.3,0,0.4,0
	c1.1,0,2.3,0,3.4,0c1.3,0,2.4,1,2.4,2.3c0.1,1.6,0,3.3,0,4.9C21.8,27.2,21.8,27.8,21.8,28.5L21.8,28.5z"/>
<path id="Path_4133" class="st0" d="M1.8,31c0-1.4,0-2.8,0-4.1c0-1.4,1.1-2.5,2.4-2.5c0,0,0,0,0.1,0c1.1,0,2.2,0,3.3,0
	c1.4,0,2.5,1,2.6,2.4c0,0.1,0,0.1,0,0.2c0,2.8,0,5.5,0,8.3c0,1.4-1.1,2.5-2.5,2.5c0,0,0,0,0,0c-1.1,0-2.2,0-3.3,0
	c-1.4,0-2.5-1.1-2.5-2.5c0,0,0,0,0-0.1C1.8,33.7,1.8,32.4,1.8,31z"/>
<polyline class="st1" points="29,1 34.1,2.2 32.9,7.5 "/>
<line class="st1" x1="32.9" y1="2.6" x2="1.5" y2="19.3"/>
</svg>
